<?xml version="1.0" encoding="utf-8"?>
<svg xmlns="http://www.w3.org/2000/svg" height="456" viewBox="0 0 456 456" width="456">
  <path d="M43.2 43.2L408 43.2L408 408L43.2 408L43.2 43.2Z" fill="none" />
  <path d="M368.632 219.216L231.832 82.416C226.36 76.944 218.76 73.6 210.4 73.6L104 73.6C87.28 73.6 73.6 87.28 73.6 104L73.6 210.4C73.6 218.76 76.944 226.36 82.568 231.984L219.368 368.784C224.84 374.256 232.44 377.6 240.8 377.6C249.16 377.6 256.76 374.256 262.232 368.632L368.632 262.232C374.256 256.76 377.6 249.16 377.6 240.8C377.6 232.44 374.104 224.688 368.632 219.216ZM240.8 347.352L104 210.4L104 104L210.4 104L210.4 103.848L347.2 240.648L240.8 347.352Z" fill="#FFFFFF" />
  <circle cx="6.5" cy="6.5" r="1.5" />
</svg>